<svg version="1.1" id="Layer_1" xmlns="http://www.w3.org/2000/svg" xmlns:xlink="http://www.w3.org/1999/xlink" x="0px" y="0px"
	 width="100%" viewBox="0 0 395 121" enable-background="new 0 0 395 121" xml:space="preserve">
<path fill="#000000" opacity="1.000000" stroke="none" 
	d="
M1.000000,59.000000 
	C1.000000,39.675056 1.000000,20.350111 1.000000,1.025167 
	C1.158205,1.016778 1.316410,1.001036 1.474616,1.001035 
	C132.917557,0.999991 264.360504,1.000000 395.901733,1.000000 
	C395.901733,41.250095 395.901733,81.500511 395.901733,121.875465 
	C264.333405,121.875465 132.666718,121.875465 1.000000,121.875465 
	C1.000000,108.926231 1.000000,95.931770 1.328558,82.431122 
	C2.094593,81.977470 2.532069,82.029999 2.987840,82.314026 
	C3.006135,82.545517 3.003517,83.009941 2.800003,83.083611 
	C2.739087,83.415184 2.881686,83.673096 3.067450,84.198784 
	C3.150389,84.642960 3.190165,84.819359 3.184304,85.253708 
	C3.415986,85.703781 3.693303,85.895905 4.037344,86.438728 
	C5.491706,89.525978 6.879345,92.262543 8.218254,95.249557 
	C8.444879,95.674500 8.720233,95.848976 9.118231,96.295273 
	C9.588674,97.043503 9.936474,97.519920 10.240932,98.230858 
	C10.197591,98.465385 10.528881,98.808273 10.528881,98.808273 
	C10.528881,98.808273 11.002556,98.753296 11.308635,98.928879 
	C13.470961,100.922867 15.281510,102.790825 17.191010,104.551468 
	C28.007626,114.524834 41.290615,116.238503 54.657234,113.389481 
	C70.861176,109.935692 84.689674,95.094299 87.639381,76.598175 
	C90.985359,55.617268 71.832169,29.795475 52.698063,28.725166 
	C49.167484,28.527676 45.630730,27.451199 42.148941,27.657955 
	C38.879154,27.852127 35.711891,29.378035 32.441246,30.021992 
	C19.394142,32.590828 5.571997,46.047535 2.616748,58.920311 
	C1.863000,58.967896 1.431500,58.983948 1.000000,59.000000 
M323.986450,53.477402 
	C324.350983,51.476524 324.715515,49.475651 325.060760,47.580669 
	C323.035858,47.743702 321.420166,48.199741 319.937073,47.929096 
	C316.215515,47.249950 314.930756,49.353855 314.266418,52.362232 
	C313.154968,57.395187 312.182068,62.461029 310.962585,67.467163 
	C309.792572,72.270195 308.383362,77.014946 306.788177,82.849991 
	C303.483978,70.054993 300.504059,58.515678 297.534485,47.016594 
	C295.502411,47.016594 293.721863,46.639774 292.200470,47.106960 
	C290.044495,47.769005 286.713959,48.634605 286.252747,50.138958 
	C283.062714,60.544888 280.487335,71.139252 277.714508,81.673080 
	C277.459229,81.712204 277.203949,81.751328 276.948639,81.790451 
	C274.205902,70.162811 271.463135,58.535160 268.854950,47.478092 
	C265.168213,47.780552 262.154907,48.027763 259.054474,48.282120 
	C262.880463,64.005104 266.634613,79.432922 270.373169,94.796577 
	C283.287750,95.495964 283.288116,95.496048 285.980225,83.303490 
	C286.015289,83.144615 285.948914,82.961563 285.990753,82.806221 
	C287.871094,75.830383 289.758301,68.856400 292.025970,60.472565 
	C295.392395,72.961411 298.339264,83.893639 301.271332,94.771057 
	C305.640533,94.771057 309.748291,94.771057 313.736603,94.771057 
	C314.195099,92.962303 314.593750,91.395226 314.989502,89.827408 
	C317.976349,77.993942 320.962646,66.160324 323.986450,53.477402 
M358.974548,78.507462 
	C358.974548,73.827110 358.974548,69.146751 358.974548,63.701496 
	C364.379883,72.234138 369.904388,79.611862 373.942139,87.729118 
	C377.548218,94.978500 382.705872,96.051842 389.034668,94.771568 
	C389.034668,79.194534 389.034668,63.711025 389.034668,48.266479 
	C385.390228,48.266479 382.322021,48.266479 378.865906,48.266479 
	C378.865906,58.193466 378.865906,67.857483 378.865906,78.577789 
	C372.824341,68.585434 367.398376,59.530987 361.854370,50.549385 
	C361.203796,49.495438 359.964600,48.226242 358.892456,48.119534 
	C355.670532,47.798866 352.396301,48.004002 349.292511,48.004002 
	C349.292511,64.030502 349.292511,79.422691 349.292511,94.709396 
	C352.659485,94.709396 355.730347,94.709396 358.974701,94.709396 
	C358.974701,89.445557 358.974701,84.474167 358.974548,78.507462 
M123.517715,94.992218 
	C127.349648,94.986954 131.187210,95.114365 135.012497,94.952141 
	C147.732712,94.412659 151.750320,84.703911 148.776428,77.179207 
	C147.708603,74.477379 144.385330,72.666939 142.926300,71.256660 
	C144.762863,67.943451 147.501114,65.130783 147.796417,62.081516 
	C148.775375,51.973255 141.150589,46.061520 130.916519,47.446312 
	C125.151634,48.226368 119.194679,47.586895 113.310699,47.586895 
	C113.310699,63.300522 113.310699,79.038803 113.310699,94.994247 
	C116.576050,94.994247 119.553543,94.994247 123.517715,94.992218 
M179.407715,94.963203 
	C181.515533,94.963203 183.623352,94.963203 185.661209,94.963203 
	C185.661209,92.023315 185.661209,89.630806 185.661209,86.834503 
	C178.949127,86.834503 172.544052,86.834503 166.284576,86.834503 
	C166.284576,82.668892 166.284576,78.930099 166.284576,74.860504 
	C172.024963,74.860504 177.456284,74.860504 182.929199,74.860504 
	C183.382919,72.199142 183.782257,69.856911 184.256180,67.077133 
	C177.916534,67.077133 172.167374,67.077133 166.574188,67.077133 
	C166.337982,62.950222 166.120605,59.152435 165.879730,54.944065 
	C172.523056,54.944065 178.606186,54.944065 184.725861,54.944065 
	C184.725861,52.147327 184.725861,49.750977 184.725861,47.301514 
	C175.084549,47.301514 165.696976,47.301514 156.273895,47.301514 
	C156.273895,63.288792 156.273895,79.002350 156.273895,94.965523 
	C163.841019,94.965523 171.133240,94.965523 179.407715,94.963203 
M232.011902,82.489395 
	C232.011902,86.592522 232.011902,90.695648 232.011902,94.701843 
	C235.649338,94.701843 238.715805,94.701843 242.170731,94.701843 
	C242.170731,81.332603 242.170731,68.268387 242.170731,54.813286 
	C246.655563,54.813286 250.737503,54.813286 254.666016,54.813286 
	C254.666016,52.330063 254.666016,50.265591 254.666016,47.793129 
	C242.343399,47.793129 230.322464,47.793129 218.298416,47.793129 
	C218.298416,49.982384 218.298416,52.373531 218.298416,55.166840 
	C223.008774,55.166840 227.418686,55.166840 232.011063,55.166840 
	C232.011063,64.217567 232.011063,72.854675 232.011902,82.489395 
M331.012177,57.550598 
	C331.012177,69.981140 331.012177,82.411690 331.012177,94.692123 
	C334.688446,94.692123 337.762665,94.692123 340.855377,94.692123 
	C340.855377,78.745102 340.855377,63.110405 340.855377,47.721481 
	C337.560883,47.721481 334.401794,47.721481 331.012878,47.721481 
	C331.012878,50.595398 331.012878,53.584229 331.012177,57.550598 
M206.465790,79.990440 
	C209.566772,79.990440 212.667770,79.990440 215.709900,79.990440 
	C215.709900,76.688820 215.709900,73.961884 215.709900,71.287231 
	C207.358170,71.287231 199.304062,71.287231 191.302200,71.287231 
	C191.302200,74.305862 191.302200,77.030624 191.302200,79.991325 
	C196.221207,79.991325 200.850143,79.991325 206.465790,79.990440 
z"/>
<path fill="#343BE9" opacity="1.000000" stroke="none" 
	d="
M3.003517,83.009941 
	C3.003517,83.009941 3.006135,82.545517 3.004063,81.898148 
	C2.334660,79.500511 1.667330,77.750259 1.000000,76.000000 
	C1.000000,74.933327 1.000000,73.866661 1.297266,72.362335 
	C1.910531,71.517372 2.226529,71.110062 2.542526,70.702751 
	C2.028350,70.468506 1.514174,70.234253 1.000000,70.000000 
	C1.000000,69.250000 1.000000,68.500000 1.386472,67.290955 
	C2.161628,64.184196 2.550312,61.536488 2.938996,58.888783 
	C5.571997,46.047535 19.394142,32.590828 32.441246,30.021992 
	C35.711891,29.378035 38.879154,27.852127 42.148941,27.657955 
	C45.630730,27.451199 49.167484,28.527676 52.698063,28.725166 
	C71.832169,29.795475 90.985359,55.617268 87.639381,76.598175 
	C84.689674,95.094299 70.861176,109.935692 54.657234,113.389481 
	C41.290615,116.238503 28.007626,114.524834 17.191010,104.551468 
	C15.281510,102.790825 13.470961,100.922867 11.231946,98.765930 
	C10.709026,98.220604 10.520725,98.076920 10.284275,97.996330 
	C9.936474,97.519920 9.588674,97.043503 9.058054,96.086014 
	C8.739827,95.335381 8.537077,95.133438 8.266983,94.999100 
	C6.879345,92.262543 5.491706,89.525978 3.981512,86.216560 
	C3.721419,85.357697 3.511747,85.141716 3.229940,84.995766 
	C3.190165,84.819359 3.150389,84.642960 3.074716,83.968292 
	C3.038818,83.470016 3.003517,83.009941 3.003517,83.009941 
M34.587475,63.158131 
	C34.324276,63.318314 34.130013,63.539146 33.329185,64.257744 
	C30.749878,69.584496 31.838364,74.739975 34.322010,80.393127 
	C34.877224,80.598167 35.432438,80.803200 36.504173,81.119812 
	C36.671825,81.173843 36.839474,81.227882 37.260128,81.631691 
	C37.476227,81.839958 37.733654,81.958450 38.526417,82.092735 
	C38.685223,82.148712 38.844032,82.204697 39.262768,82.619553 
	C39.485432,82.832283 39.750023,82.953568 40.540134,83.064095 
	C40.540134,83.064095 41.014763,83.186974 41.455124,83.659241 
	C43.631481,83.498535 45.807838,83.337830 48.455032,83.043602 
	C48.455032,83.043602 48.939621,82.975082 49.557583,82.968597 
	C50.035702,82.636177 50.513821,82.303757 51.241684,81.438873 
	C51.798664,81.282806 52.355648,81.126747 53.393482,80.787132 
	C53.590847,80.514626 53.788208,80.242111 54.000286,80.001183 
	C54.000286,80.001183 53.970879,79.982315 54.678242,79.887154 
	C55.105583,78.891953 55.532925,77.896751 56.046650,76.431641 
	C56.046650,76.431641 56.192902,75.976799 56.671391,75.454788 
	C58.165581,72.182892 58.490143,68.991859 55.542103,65.767052 
	C55.378925,65.464905 55.215748,65.162766 54.988773,64.286751 
	C54.638683,63.866634 54.288589,63.446522 53.995380,63.000202 
	C53.995380,63.000202 53.969810,63.057373 53.774406,62.583752 
	C53.497524,62.394722 53.220638,62.205692 52.365620,61.882412 
	C51.917164,61.553959 51.468708,61.225502 50.792919,60.481602 
	C50.583538,60.226513 50.317062,60.066452 49.484734,59.903751 
	C49.319752,59.852760 49.154766,59.801773 48.559586,59.149933 
	C44.650734,57.250660 41.032784,57.232536 37.531284,60.938499 
	C37.531284,60.938499 37.078217,61.025879 36.602848,61.201080 
	C36.405697,61.467079 36.208549,61.733078 36.002079,62.002136 
	C36.002079,62.002136 35.998062,62.011036 35.544827,62.204563 
	C35.261642,62.402672 35.081081,62.670090 34.999847,63.000000 
	C34.999847,63.000000 35.006348,63.003086 34.587475,63.158131 
M26.999208,59.999237 
	C26.999208,59.999237 26.999735,59.992077 27.451685,59.789120 
	C27.731836,59.585865 27.912601,59.316021 28.147850,58.479019 
	C28.206272,58.314522 28.264692,58.150024 28.656940,57.760513 
	C28.856216,57.564926 28.975473,57.328903 28.997431,57.000343 
	C28.997431,57.000343 29.051235,57.011208 29.479029,56.809879 
	C29.746193,56.617374 29.922266,56.362045 29.997248,55.997704 
	C29.997248,55.997704 30.041462,56.014385 30.746130,56.011894 
	C31.485958,55.330868 32.225788,54.649845 32.998672,54.000000 
	C32.998672,54.000000 32.969120,53.968155 33.396118,53.843559 
	C33.668568,53.699192 33.870636,53.487602 34.458282,53.066807 
	C34.458282,53.066807 34.926586,52.973244 35.367012,52.855583 
	C35.650433,52.715252 35.862251,52.503338 36.458347,52.080826 
	C36.458347,52.080826 36.921841,51.969833 37.803543,51.987827 
	C40.527340,51.722073 43.251137,51.456318 46.460571,51.057201 
	C46.626537,51.031963 46.792500,51.006729 47.493946,51.006046 
	C47.672482,50.998756 47.851017,50.991463 48.690735,51.050663 
	C49.130657,51.098171 49.570576,51.145679 50.427074,51.658295 
	C51.943405,51.426754 53.459740,51.195213 55.001301,50.999001 
	C55.001301,50.999001 54.966290,50.974052 55.427216,50.796413 
	C55.717793,50.606369 55.903629,50.342541 55.994770,49.994652 
	C55.994770,49.994652 56.005447,49.985054 56.453762,49.796703 
	C56.733639,49.602840 56.914421,49.340637 56.997917,48.997917 
	C56.997917,48.997917 57.010094,48.996101 57.456543,48.798424 
	C57.735668,48.601387 57.915188,48.336765 57.998932,47.998947 
	C57.998932,47.998947 58.004379,47.995098 58.450649,47.805336 
	C58.730606,47.615456 58.917030,47.357868 58.999252,46.996418 
	C58.999252,46.996418 59.034100,47.010830 59.467621,46.822601 
	C59.740192,46.639198 59.926281,46.390957 60.009979,46.010014 
	C60.009979,46.010014 60.077770,46.026203 60.492973,45.828094 
	C60.752254,45.643623 60.932606,45.400578 61.029488,45.022823 
	C61.029488,45.022823 61.104519,45.036503 61.505466,44.848396 
	C61.757034,44.676128 61.939636,44.448524 62.046124,44.041733 
	C62.046124,44.041733 62.169643,44.053230 62.550053,43.820057 
	C62.784550,43.619560 62.937790,43.369308 63.045982,42.515232 
	C63.031143,42.330746 63.016308,42.146259 62.808819,41.527267 
	C62.616482,41.258083 62.361053,41.078732 61.371208,40.667953 
	C53.138485,37.220745 45.025772,34.422729 35.765079,37.533104 
	C28.687443,39.910263 22.490511,43.239243 17.641237,48.832047 
	C12.135706,55.181728 9.505399,63.105659 9.237547,71.102142 
	C8.976370,78.899345 12.209727,86.246071 17.097200,92.713722 
	C26.141518,104.682190 43.029270,109.343811 56.996574,103.774086 
	C69.250374,98.887665 76.284851,90.087013 79.219368,77.287598 
	C81.238228,68.481964 77.462074,54.963917 70.380829,49.216774 
	C69.544067,49.762447 68.696411,50.283810 67.881264,50.851822 
	C61.980400,54.963646 61.302963,56.771225 63.957809,63.417511 
	C66.078468,68.726486 66.315430,73.863091 63.323380,79.402847 
	C63.220127,79.924614 63.116875,80.446381 62.943394,81.493713 
	C62.888939,81.661858 62.834480,81.830009 62.416756,82.230743 
	C62.192604,82.429726 62.054813,82.676857 62.005146,83.008377 
	C62.005146,83.008377 61.969242,83.003151 61.528255,83.202126 
	C61.254047,83.401939 61.082241,83.667915 61.002136,84.002136 
	C61.002136,84.002136 61.001427,84.013138 60.553070,84.211395 
	C60.272701,84.409790 60.094120,84.676392 60.000763,85.000610 
	C60.000763,85.000610 60.010742,85.017220 59.554630,85.207764 
	C59.268982,85.405716 59.089817,85.674629 59.000000,86.000000 
	C59.000000,86.000000 59.014877,86.017067 58.562828,86.210541 
	C58.279800,86.406265 58.096745,86.671104 58.001369,87.001221 
	C58.001369,87.001221 58.003986,87.013458 57.554180,87.191391 
	C57.271732,87.377762 57.085716,87.634117 57.003643,88.005089 
	C57.003643,88.005089 56.959808,87.993820 56.565670,88.126625 
	C56.313313,88.265869 56.127453,88.466675 55.552746,88.924721 
	C55.552746,88.924721 55.066696,89.021622 54.603970,89.178093 
	C54.311531,89.349304 54.101696,89.591949 53.952175,89.983093 
	C53.952175,89.983093 53.878769,89.950768 53.042992,89.967407 
	C48.353245,90.314606 43.663502,90.661812 38.435219,90.984062 
	C38.255562,90.988266 38.075905,90.992462 37.551533,90.951698 
	C37.551533,90.951698 37.205147,90.981178 36.606308,90.745697 
	C36.067619,90.396919 35.528927,90.048149 34.752293,89.357506 
	C34.547768,89.153496 34.302372,89.032120 33.501194,88.903709 
	C33.331501,88.864235 33.161812,88.824768 32.740253,88.421654 
	C32.528618,88.200432 32.272068,88.063126 31.425180,87.727425 
	C30.615982,86.822914 29.806784,85.918404 28.818954,84.562988 
	C28.636892,84.278496 28.385283,84.083946 28.000906,83.991745 
	C28.000906,83.991745 28.023262,83.931313 27.840950,83.515556 
	C27.668186,83.252960 27.434072,83.068024 27.037771,82.971695 
	C27.037771,82.971695 27.040770,82.870308 26.905262,82.518684 
	C26.776890,82.291328 26.593374,82.124702 26.162395,81.525429 
	C26.106153,81.358116 26.049913,81.190804 25.851749,80.605843 
	C25.704594,80.338837 25.493349,80.139877 25.069918,79.517975 
	C25.046255,79.348671 25.022593,79.179375 25.018724,78.192871 
	C24.642782,76.470840 24.266840,74.748802 23.366598,72.789726 
	C23.536139,72.182220 23.705679,71.574722 24.497372,70.518623 
	C24.990952,67.660477 25.484531,64.802338 26.084015,61.463440 
	C26.084015,61.463440 26.247351,60.999043 26.604870,60.756840 
	C26.822071,60.549637 26.951151,60.297340 26.999208,59.999237 
z"/>
<path fill="#3541CA" opacity="1.000000" stroke="none" 
	d="
M2.616748,58.920311 
	C2.550312,61.536488 2.161628,64.184196 1.386472,66.915955 
	C1.000000,64.629440 1.000000,62.258884 1.000000,59.444164 
	C1.431500,58.983948 1.863000,58.967896 2.616748,58.920311 
z"/>
<path fill="#3541CA" opacity="1.000000" stroke="none" 
	d="
M1.000000,76.428467 
	C1.667330,77.750259 2.334660,79.500511 2.985768,81.666649 
	C2.532069,82.029999 2.094593,81.977470 1.328558,81.962463 
	C1.000000,80.285645 1.000000,78.571281 1.000000,76.428467 
z"/>
<path fill="#3541CA" opacity="1.000000" stroke="none" 
	d="
M1.000000,70.333328 
	C1.514174,70.234253 2.028350,70.468506 2.542526,70.702751 
	C2.226529,71.110062 1.910531,71.517372 1.297266,71.962341 
	C1.000000,71.555557 1.000000,71.111107 1.000000,70.333328 
z"/>
<path fill="#FBFBFB" opacity="1.000000" stroke="none" 
	d="
M323.967773,53.902077 
	C320.962646,66.160324 317.976349,77.993942 314.989502,89.827408 
	C314.593750,91.395226 314.195099,92.962303 313.736603,94.771057 
	C309.748291,94.771057 305.640533,94.771057 301.271332,94.771057 
	C298.339264,83.893639 295.392395,72.961411 292.025970,60.472565 
	C289.758301,68.856400 287.871094,75.830383 285.990753,82.806221 
	C285.948914,82.961563 286.015289,83.144615 285.980225,83.303490 
	C283.288116,95.496048 283.287750,95.495964 270.373169,94.796577 
	C266.634613,79.432922 262.880463,64.005104 259.054474,48.282120 
	C262.154907,48.027763 265.168213,47.780552 268.854950,47.478092 
	C271.463135,58.535160 274.205902,70.162811 276.948639,81.790451 
	C277.203949,81.751328 277.459229,81.712204 277.714508,81.673080 
	C280.487335,71.139252 283.062714,60.544888 286.252747,50.138958 
	C286.713959,48.634605 290.044495,47.769005 292.200470,47.106960 
	C293.721863,46.639774 295.502411,47.016594 297.534485,47.016594 
	C300.504059,58.515678 303.483978,70.054993 306.788177,82.849991 
	C308.383362,77.014946 309.792572,72.270195 310.962585,67.467163 
	C312.182068,62.461029 313.154968,57.395187 314.266418,52.362232 
	C314.930756,49.353855 316.215515,47.249950 319.937073,47.929096 
	C321.420166,48.199741 323.035858,47.743702 325.060760,47.580669 
	C324.715515,49.475651 324.350983,51.476524 323.967773,53.902077 
z"/>
<path fill="#FCFCFC" opacity="1.000000" stroke="none" 
	d="
M358.974609,79.005119 
	C358.974701,84.474167 358.974701,89.445557 358.974701,94.709396 
	C355.730347,94.709396 352.659485,94.709396 349.292511,94.709396 
	C349.292511,79.422691 349.292511,64.030502 349.292511,48.004002 
	C352.396301,48.004002 355.670532,47.798866 358.892456,48.119534 
	C359.964600,48.226242 361.203796,49.495438 361.854370,50.549385 
	C367.398376,59.530987 372.824341,68.585434 378.865906,78.577789 
	C378.865906,67.857483 378.865906,58.193466 378.865906,48.266479 
	C382.322021,48.266479 385.390228,48.266479 389.034668,48.266479 
	C389.034668,63.711025 389.034668,79.194534 389.034668,94.771568 
	C382.705872,96.051842 377.548218,94.978500 373.942139,87.729118 
	C369.904388,79.611862 364.379883,72.234138 358.974548,63.701496 
	C358.974548,69.146751 358.974548,73.827110 358.974609,79.005119 
z"/>
<path fill="#FBFBFC" opacity="1.000000" stroke="none" 
	d="
M123.024376,94.993233 
	C119.553543,94.994247 116.576050,94.994247 113.310699,94.994247 
	C113.310699,79.038803 113.310699,63.300522 113.310699,47.586895 
	C119.194679,47.586895 125.151634,48.226368 130.916519,47.446312 
	C141.150589,46.061520 148.775375,51.973255 147.796417,62.081516 
	C147.501114,65.130783 144.762863,67.943451 142.926300,71.256660 
	C144.385330,72.666939 147.708603,74.477379 148.776428,77.179207 
	C151.750320,84.703911 147.732712,94.412659 135.012497,94.952141 
	C131.187210,95.114365 127.349648,94.986954 123.024376,94.993233 
M138.949783,83.462967 
	C139.797821,80.191406 139.922882,76.418686 136.398438,75.367310 
	C132.529251,74.213104 126.821198,73.030540 124.412193,74.967255 
	C122.137337,76.796127 123.106277,82.659828 122.617661,87.023079 
	C126.389450,87.023079 129.250748,87.400047 131.953018,86.906448 
	C134.205231,86.495056 136.270874,85.062424 138.949783,83.462967 
M128.469879,67.017242 
	C129.631851,67.017502 130.816452,66.870239 131.951752,67.044395 
	C136.153137,67.688881 138.232269,65.242165 138.591904,61.712322 
	C138.910797,58.582127 137.065277,56.287094 133.581802,55.903084 
	C130.134369,55.523045 126.688469,55.129215 123.004227,54.714691 
	C123.004227,57.444130 123.004227,59.255898 123.004227,61.067665 
	C123.004227,62.990753 123.004227,64.913841 123.004227,66.733643 
	C123.910522,66.888794 124.223877,66.981056 124.539429,66.989311 
	C125.534767,67.015327 126.530937,67.009865 128.469879,67.017242 
z"/>
<path fill="#FBFBFC" opacity="1.000000" stroke="none" 
	d="
M178.916580,94.964363 
	C171.133240,94.965523 163.841019,94.965523 156.273895,94.965523 
	C156.273895,79.002350 156.273895,63.288792 156.273895,47.301514 
	C165.696976,47.301514 175.084549,47.301514 184.725861,47.301514 
	C184.725861,49.750977 184.725861,52.147327 184.725861,54.944065 
	C178.606186,54.944065 172.523056,54.944065 165.879730,54.944065 
	C166.120605,59.152435 166.337982,62.950222 166.574188,67.077133 
	C172.167374,67.077133 177.916534,67.077133 184.256180,67.077133 
	C183.782257,69.856911 183.382919,72.199142 182.929199,74.860504 
	C177.456284,74.860504 172.024963,74.860504 166.284576,74.860504 
	C166.284576,78.930099 166.284576,82.668892 166.284576,86.834503 
	C172.544052,86.834503 178.949127,86.834503 185.661209,86.834503 
	C185.661209,89.630806 185.661209,92.023315 185.661209,94.963203 
	C183.623352,94.963203 181.515533,94.963203 178.916580,94.964363 
z"/>
<path fill="#F6F7F7" opacity="1.000000" stroke="none" 
	d="
M232.011475,81.990585 
	C232.011063,72.854675 232.011063,64.217567 232.011063,55.166840 
	C227.418686,55.166840 223.008774,55.166840 218.298416,55.166840 
	C218.298416,52.373531 218.298416,49.982384 218.298416,47.793129 
	C230.322464,47.793129 242.343399,47.793129 254.666016,47.793129 
	C254.666016,50.265591 254.666016,52.330063 254.666016,54.813286 
	C250.737503,54.813286 246.655563,54.813286 242.170731,54.813286 
	C242.170731,68.268387 242.170731,81.332603 242.170731,94.701843 
	C238.715805,94.701843 235.649338,94.701843 232.011902,94.701843 
	C232.011902,90.695648 232.011902,86.592522 232.011475,81.990585 
z"/>
<path fill="#FBFCFC" opacity="1.000000" stroke="none" 
	d="
M331.012512,57.061829 
	C331.012878,53.584229 331.012878,50.595398 331.012878,47.721481 
	C334.401794,47.721481 337.560883,47.721481 340.855377,47.721481 
	C340.855377,63.110405 340.855377,78.745102 340.855377,94.692123 
	C337.762665,94.692123 334.688446,94.692123 331.012177,94.692123 
	C331.012177,82.411690 331.012177,69.981140 331.012512,57.061829 
z"/>
<path fill="#F9F9FB" opacity="1.000000" stroke="none" 
	d="
M205.972427,79.990883 
	C200.850143,79.991325 196.221207,79.991325 191.302200,79.991325 
	C191.302200,77.030624 191.302200,74.305862 191.302200,71.287231 
	C199.304062,71.287231 207.358170,71.287231 215.709900,71.287231 
	C215.709900,73.961884 215.709900,76.688820 215.709900,79.990440 
	C212.667770,79.990440 209.566772,79.990440 205.972427,79.990883 
z"/>
<path fill="#3541CA" opacity="1.000000" stroke="none" 
	d="
M10.240933,98.230858 
	C10.520725,98.076920 10.709026,98.220604 10.925867,98.590340 
	C11.002556,98.753296 10.528881,98.808273 10.528881,98.808273 
	C10.528881,98.808273 10.197591,98.465385 10.240933,98.230858 
z"/>
<path fill="#3541CA" opacity="1.000000" stroke="none" 
	d="
M2.800003,83.083611 
	C3.003517,83.009941 3.038818,83.470016 3.031552,83.700508 
	C2.881686,83.673096 2.739087,83.415184 2.800003,83.083611 
z"/>
<path fill="#3541CA" opacity="1.000000" stroke="none" 
	d="
M3.184304,85.253708 
	C3.511747,85.141716 3.721419,85.357697 3.914788,85.865868 
	C3.693303,85.895905 3.415986,85.703781 3.184304,85.253708 
z"/>
<path fill="#3541CA" opacity="1.000000" stroke="none" 
	d="
M8.218254,95.249557 
	C8.537077,95.133438 8.739827,95.335381 8.935411,95.814194 
	C8.720233,95.848976 8.444879,95.674500 8.218254,95.249557 
z"/>
<path fill="#000000" opacity="1.000000" stroke="none" 
	d="
M63.001476,41.961777 
	C63.016308,42.146259 63.031143,42.330746 62.797554,42.864758 
	C62.244453,43.413319 62.117958,43.692966 62.169643,44.053230 
	C62.169643,44.053230 62.046124,44.041733 61.806328,44.131454 
	C61.247112,44.399200 61.093105,44.670975 61.104519,45.036503 
	C61.104519,45.036503 61.029488,45.022823 60.784290,45.102997 
	C60.385319,45.464184 60.231544,45.745193 60.077770,46.026203 
	C60.077770,46.026203 60.009979,46.010014 59.771767,46.094177 
	C59.367069,46.455837 59.200584,46.733334 59.034100,47.010830 
	C59.034100,47.010830 58.999252,46.996418 58.754776,47.070633 
	C58.341656,47.428265 58.173019,47.711681 58.004379,47.995098 
	C58.004379,47.995098 57.998932,47.998947 57.753174,48.073120 
	C57.341640,48.430229 57.175869,48.713165 57.010094,48.996101 
	C57.010094,48.996101 56.997917,48.997917 56.753799,49.072151 
	C56.341602,49.425938 56.173523,49.705498 56.005447,49.985054 
	C56.005447,49.985054 55.994770,49.994652 55.744331,50.065643 
	C55.318027,50.415775 55.142159,50.694916 54.966290,50.974052 
	C54.966290,50.974052 55.001301,50.999001 54.573929,50.996925 
	C52.767872,51.060966 51.389183,51.127079 50.010498,51.193188 
	C49.570576,51.145679 49.130657,51.098171 48.290691,50.777901 
	C47.579922,50.663929 47.269192,50.822716 46.958462,50.981499 
	C46.792500,51.006729 46.626537,51.031963 45.899925,51.038895 
	C42.533466,51.337002 39.727654,51.653419 36.921841,51.969833 
	C36.921841,51.969833 36.458347,52.080826 35.974060,52.113804 
	C35.302048,52.422268 35.114315,52.697758 34.926586,52.973244 
	C34.926586,52.973244 34.458282,53.066807 33.977295,53.105541 
	C33.320576,53.418903 33.144848,53.693527 32.969120,53.968155 
	C32.969120,53.968155 32.998672,54.000000 32.660801,54.019775 
	C31.562439,54.697826 30.801950,55.356106 30.041462,56.014385 
	C30.041462,56.014385 29.997248,55.997704 29.752857,56.073303 
	C29.356058,56.436337 29.203646,56.723774 29.051235,57.011208 
	C29.051235,57.011208 28.997431,57.000343 28.774849,57.082230 
	C28.205084,57.362350 28.128698,57.636154 28.323111,57.985531 
	C28.264692,58.150024 28.206272,58.314522 27.824413,58.804646 
	C27.333897,59.417542 27.166817,59.704807 26.999735,59.992077 
	C26.999735,59.992077 26.999208,59.999237 26.758509,60.068802 
	C26.170517,60.344437 26.080364,60.631329 26.247351,60.999043 
	C26.247351,60.999043 26.084015,61.463440 25.712429,61.869179 
	C24.852304,65.172348 24.363762,68.069786 23.875219,70.967216 
	C23.705679,71.574722 23.536139,72.182220 23.679180,73.234802 
	C24.327484,75.456612 24.663208,77.233345 24.998932,79.010078 
	C25.022593,79.179375 25.046255,79.348671 25.119841,80.014496 
	C25.444399,80.681839 25.719036,80.852669 25.993671,81.023499 
	C26.049913,81.190804 26.106153,81.358116 26.214596,81.998528 
	C26.431797,82.784958 26.689787,82.917854 27.040770,82.870308 
	C27.040770,82.870308 27.037771,82.971695 27.132957,83.203888 
	C27.407305,83.738998 27.672344,83.904083 28.023262,83.931313 
	C28.023262,83.931313 28.000906,83.991745 28.087517,84.232315 
	C28.448614,84.653221 28.723099,84.833557 28.997583,85.013893 
	C29.806784,85.918404 30.615982,86.822914 31.758980,88.120834 
	C32.392563,88.604599 32.692345,88.694954 32.992126,88.785309 
	C33.161812,88.824768 33.331501,88.864235 33.836681,89.169617 
	C34.172169,89.435532 34.523861,89.745247 34.523861,89.745247 
	C34.523861,89.745247 34.990238,89.699371 34.990238,89.699371 
	C35.528927,90.048149 36.067619,90.396919 36.923668,91.044098 
	C37.459435,91.227219 37.677845,91.111938 37.896252,90.996666 
	C38.075905,90.992462 38.255562,90.988266 38.886555,91.294250 
	C44.493793,93.769798 49.278873,92.674454 53.878769,89.950768 
	C53.878769,89.950768 53.952175,89.983093 54.220261,89.915703 
	C54.681129,89.572746 54.873913,89.297188 55.066696,89.021622 
	C55.066696,89.021622 55.552746,88.924721 56.013687,88.838577 
	C56.774750,88.588089 56.936474,88.335213 56.959808,87.993820 
	C56.959808,87.993820 57.003643,88.005089 57.240284,87.917267 
	C57.779015,87.639099 57.954704,87.367104 58.003986,87.013458 
	C58.003986,87.013458 58.001369,87.001221 58.256153,86.937958 
	C58.678917,86.588821 58.846897,86.302948 59.014877,86.017067 
	C59.014877,86.017067 59.000000,86.000000 59.246834,85.925552 
	C59.666027,85.573151 59.838383,85.295181 60.010742,85.017220 
	C60.010742,85.017220 60.000763,85.000610 60.255692,84.936607 
	C60.674221,84.586121 60.837826,84.299629 61.001427,84.013138 
	C61.001427,84.013138 61.002136,84.002136 61.241478,83.918114 
	C61.781361,83.638077 61.944168,83.361099 61.969242,83.003151 
	C61.969242,83.003151 62.005146,83.008377 62.245888,82.934273 
	C62.834843,82.658104 62.932640,82.370766 62.780022,81.998154 
	C62.834480,81.830009 62.888939,81.661858 63.219147,81.077469 
	C63.569256,80.117233 63.643608,79.573250 63.717964,79.029259 
	C66.315430,73.863091 66.078468,68.726486 63.957809,63.417511 
	C61.302963,56.771225 61.980400,54.963646 67.881264,50.851822 
	C68.696411,50.283810 69.544067,49.762447 70.380829,49.216774 
	C77.462074,54.963917 81.238228,68.481964 79.219368,77.287598 
	C76.284851,90.087013 69.250374,98.887665 56.996574,103.774086 
	C43.029270,109.343811 26.141518,104.682190 17.097200,92.713722 
	C12.209727,86.246071 8.976370,78.899345 9.237547,71.102142 
	C9.505399,63.105659 12.135706,55.181728 17.641237,48.832047 
	C22.490511,43.239243 28.687443,39.910263 35.765079,37.533104 
	C45.025772,34.422729 53.138485,37.220745 61.779709,41.063538 
	C62.378296,41.757725 62.649384,41.925278 63.001476,41.961777 
z"/>
<path fill="#000000" opacity="1.000000" stroke="none" 
	d="
M55.052570,64.860619 
	C55.215748,65.162766 55.378925,65.464905 55.784134,66.335030 
	C56.081745,69.927605 56.137321,72.952202 56.192902,75.976799 
	C56.192902,75.976799 56.046650,76.431641 55.704727,76.798431 
	C54.898830,78.104256 54.434853,79.043282 53.970879,79.982315 
	C53.970879,79.982315 54.000286,80.001183 53.743534,80.062683 
	C53.295399,80.406349 53.104015,80.688515 52.912628,80.970680 
	C52.355648,81.126747 51.798664,81.282806 50.811420,81.747879 
	C49.900646,82.362946 49.420132,82.669014 48.939621,82.975082 
	C48.939621,82.975082 48.455032,83.043602 47.789253,83.032654 
	C45.087238,83.076790 43.051003,83.131882 41.014763,83.186974 
	C41.014763,83.186974 40.540134,83.064095 40.204613,82.794525 
	C39.658192,82.181671 39.369442,82.093582 39.002846,82.260681 
	C38.844032,82.204697 38.685223,82.148712 38.195045,81.809479 
	C37.653652,81.180145 37.368134,81.098709 37.007126,81.281929 
	C36.839474,81.227882 36.671825,81.173843 36.123581,80.787209 
	C35.180969,80.250633 34.618954,80.046661 34.056938,79.842682 
	C31.838364,74.739975 30.749878,69.584496 33.921196,64.050911 
	C34.677586,63.563751 34.841965,63.283417 35.006348,63.003086 
	C35.006348,63.003086 34.999847,63.000000 35.239090,62.920647 
	C35.651577,62.564537 35.824818,62.287785 35.998062,62.011036 
	C35.998062,62.011036 36.002079,62.002136 36.256744,61.933968 
	C36.700348,61.585827 36.889282,61.305855 37.078217,61.025879 
	C37.078217,61.025879 37.531284,60.938499 38.154587,60.784729 
	C42.181858,60.337563 45.585819,60.044174 48.989784,59.750782 
	C49.154766,59.801773 49.319752,59.852760 49.809830,60.199562 
	C50.430031,60.629261 50.725143,60.763153 51.020252,60.897045 
	C51.468708,61.225502 51.917164,61.553959 52.730263,62.202587 
	C53.386539,62.700966 53.678173,62.879169 53.969810,63.057373 
	C53.969810,63.057373 53.995380,63.000202 54.011501,63.305481 
	C54.369274,64.027374 54.710922,64.444000 55.052570,64.860619 
z"/>
<path fill="#353ED3" opacity="1.000000" stroke="none" 
	d="
M53.460880,89.959091 
	C49.278873,92.674454 44.493793,93.769798 39.155823,91.306725 
	C43.663502,90.661812 48.353245,90.314606 53.460880,89.959091 
z"/>
<path fill="#363ED4" opacity="1.000000" stroke="none" 
	d="
M48.774685,59.450356 
	C45.585819,60.044174 42.181858,60.337563 38.372658,60.709415 
	C41.032784,57.232536 44.650734,57.250660 48.774685,59.450356 
z"/>
<path fill="#363ED4" opacity="1.000000" stroke="none" 
	d="
M56.432144,75.715790 
	C56.137321,72.952202 56.081745,69.927605 56.021721,66.448624 
	C58.490143,68.991859 58.165581,72.182892 56.432144,75.715790 
z"/>
<path fill="#353ED3" opacity="1.000000" stroke="none" 
	d="
M24.186295,70.742920 
	C24.363762,68.069786 24.852304,65.172348 25.659477,62.109554 
	C25.484531,64.802338 24.990952,67.660477 24.186295,70.742920 
z"/>
<path fill="#353ED3" opacity="1.000000" stroke="none" 
	d="
M37.362694,51.978832 
	C39.727654,51.653419 42.533466,51.337002 45.657104,51.105576 
	C43.251137,51.456318 40.527340,51.722073 37.362694,51.978832 
z"/>
<path fill="#363ED4" opacity="1.000000" stroke="none" 
	d="
M41.234943,83.423111 
	C43.051003,83.131882 45.087238,83.076790 47.553837,83.099411 
	C45.807838,83.337830 43.631481,83.498535 41.234943,83.423111 
z"/>
<path fill="#353ED3" opacity="1.000000" stroke="none" 
	d="
M25.008827,78.601471 
	C24.663208,77.233345 24.327484,75.456612 23.941330,73.353325 
	C24.266840,74.748802 24.642782,76.470840 25.008827,78.601471 
z"/>
<path fill="#353ED3" opacity="1.000000" stroke="none" 
	d="
M50.218788,51.425743 
	C51.389183,51.127079 52.767872,51.060966 54.561314,50.979263 
	C53.459740,51.195213 51.943405,51.426754 50.218788,51.425743 
z"/>
<path fill="#353ED3" opacity="1.000000" stroke="none" 
	d="
M30.393795,56.013138 
	C30.801950,55.356106 31.562439,54.697826 32.644272,54.004181 
	C32.225788,54.649845 31.485958,55.330868 30.393795,56.013138 
z"/>
<path fill="#363ED4" opacity="1.000000" stroke="none" 
	d="
M54.324562,79.934738 
	C54.434853,79.043282 54.898830,78.104256 55.661537,77.033386 
	C55.532925,77.896751 55.105583,78.891953 54.324562,79.934738 
z"/>
<path fill="#353ED3" opacity="1.000000" stroke="none" 
	d="
M63.520672,79.216049 
	C63.643608,79.573250 63.569256,80.117233 63.254261,80.814682 
	C63.116875,80.446381 63.220127,79.924614 63.520672,79.216049 
z"/>
<path fill="#363ED4" opacity="1.000000" stroke="none" 
	d="
M34.189476,80.117905 
	C34.618954,80.046661 35.180969,80.250633 35.865318,80.731415 
	C35.432438,80.803200 34.877224,80.598167 34.189476,80.117905 
z"/>
<path fill="#363ED4" opacity="1.000000" stroke="none" 
	d="
M55.020672,64.573685 
	C54.710922,64.444000 54.369274,64.027374 53.983059,63.318581 
	C54.288589,63.446522 54.638683,63.866634 55.020672,64.573685 
z"/>
<path fill="#363ED4" opacity="1.000000" stroke="none" 
	d="
M49.248604,82.971840 
	C49.420132,82.669014 49.900646,82.362946 50.686546,82.014099 
	C50.513821,82.303757 50.035702,82.636177 49.248604,82.971840 
z"/>
<path fill="#353ED3" opacity="1.000000" stroke="none" 
	d="
M26.973015,82.694496 
	C26.689787,82.917854 26.431797,82.784958 26.310757,82.245209 
	C26.593374,82.124702 26.776890,82.291328 26.973015,82.694496 
z"/>
<path fill="#363ED4" opacity="1.000000" stroke="none" 
	d="
M39.132805,82.440117 
	C39.369442,82.093582 39.658192,82.181671 39.962814,82.754173 
	C39.750023,82.953568 39.485432,82.832283 39.132805,82.440117 
z"/>
<path fill="#363ED4" opacity="1.000000" stroke="none" 
	d="
M37.133629,81.456810 
	C37.368134,81.098709 37.653652,81.180145 37.948044,81.756699 
	C37.733654,81.958450 37.476227,81.839958 37.133629,81.456810 
z"/>
<path fill="#353ED3" opacity="1.000000" stroke="none" 
	d="
M62.598389,82.114449 
	C62.932640,82.370766 62.834843,82.658104 62.245003,82.916153 
	C62.054813,82.676857 62.192604,82.429726 62.598389,82.114449 
z"/>
<path fill="#353ED3" opacity="1.000000" stroke="none" 
	d="
M27.932106,83.723434 
	C27.672344,83.904083 27.407305,83.738998 27.183376,83.198410 
	C27.434072,83.068024 27.668186,83.252960 27.932106,83.723434 
z"/>
<path fill="#353ED3" opacity="1.000000" stroke="none" 
	d="
M61.748749,83.102638 
	C61.944168,83.361099 61.781361,83.638077 61.246826,83.917068 
	C61.082241,83.667915 61.254047,83.401939 61.748749,83.102638 
z"/>
<path fill="#353ED3" opacity="1.000000" stroke="none" 
	d="
M28.908268,84.788437 
	C28.723099,84.833557 28.448614,84.653221 28.119127,84.226105 
	C28.385283,84.083946 28.636892,84.278496 28.908268,84.788437 
z"/>
<path fill="#353ED3" opacity="1.000000" stroke="none" 
	d="
M60.777252,84.112267 
	C60.837826,84.299629 60.674221,84.586121 60.263977,84.941895 
	C60.094120,84.676392 60.272701,84.409790 60.777252,84.112267 
z"/>
<path fill="#353ED3" opacity="1.000000" stroke="none" 
	d="
M59.782684,85.112488 
	C59.838383,85.295181 59.666027,85.573151 59.255405,85.932816 
	C59.089817,85.674629 59.268982,85.405716 59.782684,85.112488 
z"/>
<path fill="#353ED3" opacity="1.000000" stroke="none" 
	d="
M58.788853,86.113800 
	C58.846897,86.302948 58.678917,86.588821 58.262299,86.939880 
	C58.096745,86.671104 58.279800,86.406265 58.788853,86.113800 
z"/>
<path fill="#353ED3" opacity="1.000000" stroke="none" 
	d="
M57.779083,87.102425 
	C57.954704,87.367104 57.779015,87.639099 57.236526,87.894951 
	C57.085716,87.634117 57.271732,87.377762 57.779083,87.102425 
z"/>
<path fill="#353ED3" opacity="1.000000" stroke="none" 
	d="
M32.866188,88.603485 
	C32.692345,88.694954 32.392563,88.604599 32.031693,88.261978 
	C32.272068,88.063126 32.528618,88.200432 32.866188,88.603485 
z"/>
<path fill="#353ED3" opacity="1.000000" stroke="none" 
	d="
M56.762741,88.060226 
	C56.936474,88.335213 56.774750,88.588089 56.241364,88.740738 
	C56.127453,88.466675 56.313313,88.265869 56.762741,88.060226 
z"/>
<path fill="#353ED3" opacity="1.000000" stroke="none" 
	d="
M34.871265,89.528442 
	C34.990238,89.699371 34.523861,89.745247 34.523861,89.745247 
	C34.523861,89.745247 34.172169,89.435532 34.094135,89.214447 
	C34.302372,89.032120 34.547768,89.153496 34.871265,89.528442 
z"/>
<path fill="#353ED3" opacity="1.000000" stroke="none" 
	d="
M54.835335,89.099854 
	C54.873913,89.297188 54.681129,89.572746 54.231403,89.877174 
	C54.101696,89.591949 54.311531,89.349304 54.835335,89.099854 
z"/>
<path fill="#353ED3" opacity="1.000000" stroke="none" 
	d="
M37.723892,90.974182 
	C37.677845,91.111938 37.459435,91.227219 37.223087,91.161835 
	C37.205147,90.981178 37.551533,90.951698 37.723892,90.974182 
z"/>
<path fill="#353ED3" opacity="1.000000" stroke="none" 
	d="
M33.182617,53.905857 
	C33.144848,53.693527 33.320576,53.418903 33.749313,53.176533 
	C33.870636,53.487602 33.668568,53.699192 33.182617,53.905857 
z"/>
<path fill="#353ED3" opacity="1.000000" stroke="none" 
	d="
M62.905148,41.744522 
	C62.649384,41.925278 62.378296,41.757725 62.115372,41.224167 
	C62.361053,41.078732 62.616482,41.258083 62.905148,41.744522 
z"/>
<path fill="#353ED3" opacity="1.000000" stroke="none" 
	d="
M62.359848,43.936646 
	C62.117958,43.692966 62.244453,43.413319 62.779449,43.141788 
	C62.937790,43.369308 62.784550,43.619560 62.359848,43.936646 
z"/>
<path fill="#353ED3" opacity="1.000000" stroke="none" 
	d="
M61.304993,44.942451 
	C61.093105,44.670975 61.247112,44.399200 61.809902,44.193382 
	C61.939636,44.448524 61.757034,44.676128 61.304993,44.942451 
z"/>
<path fill="#353ED3" opacity="1.000000" stroke="none" 
	d="
M60.285370,45.927147 
	C60.231544,45.745193 60.385319,45.464184 60.786560,45.141068 
	C60.932606,45.400578 60.752254,45.643623 60.285370,45.927147 
z"/>
<path fill="#353ED3" opacity="1.000000" stroke="none" 
	d="
M59.250862,46.916718 
	C59.200584,46.733334 59.367069,46.455837 59.779716,46.128105 
	C59.926281,46.390957 59.740192,46.639198 59.250862,46.916718 
z"/>
<path fill="#353ED3" opacity="1.000000" stroke="none" 
	d="
M58.227516,47.900215 
	C58.173019,47.711681 58.341656,47.428265 58.760105,47.088711 
	C58.917030,47.357868 58.730606,47.615456 58.227516,47.900215 
z"/>
<path fill="#353ED3" opacity="1.000000" stroke="none" 
	d="
M57.233322,48.897263 
	C57.175869,48.713165 57.341640,48.430229 57.751255,48.075928 
	C57.915188,48.336765 57.735668,48.601387 57.233322,48.897263 
z"/>
<path fill="#353ED3" opacity="1.000000" stroke="none" 
	d="
M56.229607,49.890877 
	C56.173523,49.705498 56.341602,49.425938 56.752892,49.078239 
	C56.914421,49.340637 56.733639,49.602840 56.229607,49.890877 
z"/>
<path fill="#353ED3" opacity="1.000000" stroke="none" 
	d="
M47.226204,50.993774 
	C47.269192,50.822716 47.579922,50.663929 47.960098,50.744659 
	C47.851017,50.991463 47.672482,50.998756 47.226204,50.993774 
z"/>
<path fill="#353ED3" opacity="1.000000" stroke="none" 
	d="
M55.196754,50.885231 
	C55.142159,50.694916 55.318027,50.415775 55.739311,50.070782 
	C55.903629,50.342541 55.717793,50.606369 55.196754,50.885231 
z"/>
<path fill="#353ED3" opacity="1.000000" stroke="none" 
	d="
M35.146797,52.914413 
	C35.114315,52.697758 35.302048,52.422268 35.746124,52.183315 
	C35.862251,52.503338 35.650433,52.715252 35.146797,52.914413 
z"/>
<path fill="#363ED4" opacity="1.000000" stroke="none" 
	d="
M53.153057,80.878906 
	C53.104015,80.688515 53.295399,80.406349 53.736176,80.046890 
	C53.788208,80.242111 53.590847,80.514626 53.153057,80.878906 
z"/>
<path fill="#353ED3" opacity="1.000000" stroke="none" 
	d="
M29.265133,56.910545 
	C29.203646,56.723774 29.356058,56.436337 29.757858,56.096397 
	C29.922266,56.362045 29.746193,56.617374 29.265133,56.910545 
z"/>
<path fill="#353ED3" opacity="1.000000" stroke="none" 
	d="
M28.490025,57.873024 
	C28.128698,57.636154 28.205084,57.362350 28.783489,57.108284 
	C28.975473,57.328903 28.856216,57.564926 28.490025,57.873024 
z"/>
<path fill="#353ED3" opacity="1.000000" stroke="none" 
	d="
M27.225710,59.890598 
	C27.166817,59.704807 27.333897,59.417542 27.747480,59.054932 
	C27.912601,59.316021 27.731836,59.585865 27.225710,59.890598 
z"/>
<path fill="#353ED3" opacity="1.000000" stroke="none" 
	d="
M26.426109,60.877941 
	C26.080364,60.631329 26.170517,60.344437 26.754959,60.069160 
	C26.951151,60.297340 26.822071,60.549637 26.426109,60.877941 
z"/>
<path fill="#363ED4" opacity="1.000000" stroke="none" 
	d="
M50.906586,60.689323 
	C50.725143,60.763153 50.430031,60.629261 50.064209,60.248390 
	C50.317062,60.066452 50.583538,60.226513 50.906586,60.689323 
z"/>
<path fill="#363ED4" opacity="1.000000" stroke="none" 
	d="
M36.840530,61.113480 
	C36.889282,61.305855 36.700348,61.585827 36.261406,61.932442 
	C36.208549,61.733078 36.405697,61.467079 36.840530,61.113480 
z"/>
<path fill="#363ED4" opacity="1.000000" stroke="none" 
	d="
M35.771446,62.107800 
	C35.824818,62.287785 35.651577,62.564537 35.240738,62.924049 
	C35.081081,62.670090 35.261642,62.402672 35.771446,62.107800 
z"/>
<path fill="#363ED4" opacity="1.000000" stroke="none" 
	d="
M53.872108,62.820564 
	C53.678173,62.879169 53.386539,62.700966 53.019325,62.269714 
	C53.220638,62.205692 53.497524,62.394722 53.872108,62.820564 
z"/>
<path fill="#363ED4" opacity="1.000000" stroke="none" 
	d="
M34.796913,63.080608 
	C34.841965,63.283417 34.677586,63.563751 34.258945,63.832359 
	C34.130013,63.539146 34.324276,63.318314 34.796913,63.080608 
z"/>
<path fill="#353ED3" opacity="1.000000" stroke="none" 
	d="
M25.922710,80.814667 
	C25.719036,80.852669 25.444399,80.681839 25.193890,80.259995 
	C25.493349,80.139877 25.704594,80.338837 25.922710,80.814667 
z"/>
<path fill="#000000" opacity="1.000000" stroke="none" 
	d="
M138.684479,83.772537 
	C136.270874,85.062424 134.205231,86.495056 131.953018,86.906448 
	C129.250748,87.400047 126.389450,87.023079 122.617661,87.023079 
	C123.106277,82.659828 122.137337,76.796127 124.412193,74.967255 
	C126.821198,73.030540 132.529251,74.213104 136.398438,75.367310 
	C139.922882,76.418686 139.797821,80.191406 138.684479,83.772537 
z"/>
<path fill="#000000" opacity="1.000000" stroke="none" 
	d="
M127.998329,67.016907 
	C126.530937,67.009865 125.534767,67.015327 124.539429,66.989311 
	C124.223877,66.981056 123.910522,66.888794 123.004227,66.733643 
	C123.004227,64.913841 123.004227,62.990753 123.004227,61.067665 
	C123.004227,59.255898 123.004227,57.444130 123.004227,54.714691 
	C126.688469,55.129215 130.134369,55.523045 133.581802,55.903084 
	C137.065277,56.287094 138.910797,58.582127 138.591904,61.712322 
	C138.232269,65.242165 136.153137,67.688881 131.951752,67.044395 
	C130.816452,66.870239 129.631851,67.017502 127.998329,67.016907 
z"/>
</svg>